<?xml version="1.0" standalone="no"?>
<!DOCTYPE svg PUBLIC "-//W3C//DTD SVG 20010904//EN"
 "http://www.w3.org/TR/2001/REC-SVG-20010904/DTD/svg10.dtd">
<svg version="1.0" xmlns="http://www.w3.org/2000/svg"
 width="800.000000pt" height="796.000000pt" viewBox="0 0 800.000000 796.000000"
 preserveAspectRatio="xMidYMid meet">

<g transform="translate(0.000000,796.000000) scale(0.100000,-0.100000)"
fill="#000000" stroke="none">
<path d="M1005 7949 c-430 -55 -804 -361 -940 -768 -65 -195 -59 85 -63 -3131
-2 -2104 0 -2943 8 -3014 61 -534 474 -950 1010 -1016 113 -13 5853 -13 5960
0 529 69 940 486 1001 1015 7 60 9 1051 7 3010 -3 2722 -5 2925 -21 2990 -61
248 -157 426 -317 585 -161 162 -333 255 -586 317 -64 16 -276 18 -3029 19
-1697 1 -2990 -2 -3030 -7z m3462 -1773 l28 -24 3 -435 c2 -268 -1 -444 -7
-460 -14 -35 -56 -61 -99 -60 -27 1 -43 9 -64 32 l-28 31 0 370 0 370 -1210 0
-1210 0 0 -2015 0 -2015 1210 0 1210 0 0 370 0 370 28 31 c21 23 37 31 64 32
43 1 85 -25 99 -60 6 -16 9 -192 7 -460 l-3 -435 -28 -24 -28 -24 -1353 0
-1352 0 -23 21 c-12 11 -26 32 -32 46 -12 33 -12 4263 0 4296 6 14 20 35 32
46 l23 21 1352 0 1353 0 28 -24z m1306 -1603 c310 -310 525 -531 534 -551 11
-26 12 -41 4 -65 -8 -22 -177 -198 -534 -555 l-522 -522 -46 0 c-69 0 -117 56
-103 118 4 18 152 173 433 455 l426 427 -1543 0 c-1332 0 -1547 2 -1578 15
-77 32 -79 140 -4 177 33 17 129 18 1580 18 l1545 0 -426 428 c-281 281 -429
436 -433 454 -14 62 34 118 103 118 l46 0 518 -517z"/>
</g>
</svg>
